<svg width="13" height="16" viewBox="0 0 13 16" fill="none" xmlns="http://www.w3.org/2000/svg">
<path fill-rule="evenodd" clip-rule="evenodd" d="M9.15485 5.69773L12.2196 13.9885C12.3998 14.4265 12.3465 14.9403 12.0713 15.3478C11.7959 15.7555 11.3372 15.9981 10.8437 15.9981H2.12189C1.62836 15.9981 1.16958 15.7555 0.894155 15.3486C0.618905 14.9403 0.565595 14.4263 0.75194 13.9725L3.81086 5.69773V3.25736C3.23125 3.05664 2.81616 2.51004 2.81616 1.86895V1.47075C2.81616 0.659672 3.47981 0.000187993 4.29546 0.000187993H8.6699C9.48565 0.000187993 10.1492 0.659672 10.1492 1.47075V1.86895C10.1492 2.51061 9.73301 3.05801 9.15485 3.25801V5.69773ZM4.61243 11.6077C4.33495 11.6077 4.10947 11.831 4.10947 12.109C4.10947 12.3865 4.33495 12.6102 4.61243 12.6102C4.89208 12.6102 5.11772 12.3865 5.11772 12.109C5.11772 11.831 4.89208 11.6077 4.61243 11.6077ZM8.23037 13.4111C8.23037 12.9348 7.84078 12.5461 7.35902 12.5461C6.87673 12.5461 6.488 12.9348 6.488 13.4111C6.488 13.8895 6.87673 14.2782 7.35902 14.2782C7.84078 14.2782 8.23037 13.8895 8.23037 13.4111ZM7.24605 10.0239C6.89879 10.0239 6.61734 10.3049 6.61734 10.6479C6.61734 10.992 6.89879 11.2719 7.24605 11.2719C7.59153 11.2719 7.8728 10.992 7.8728 10.6479C7.8728 10.3049 7.59153 10.0239 7.24605 10.0239ZM4.78925 2.85297V5.87053L3.64787 8.95814H3.69293C3.69293 8.95814 8.3623 8.88184 9.0013 8.22199C9.00785 8.21535 9.01393 8.21014 9.02003 8.2049C9.02479 8.20082 9.02956 8.19672 9.03459 8.19192L8.1763 5.87053V2.36643H8.66553C8.94602 2.36643 9.17064 2.14314 9.17064 1.86895V1.47075C9.17064 1.19618 8.94602 0.972908 8.6699 0.972908H4.29546C4.01943 0.972908 3.79464 1.19618 3.79464 1.47075V1.86895C3.79464 2.14314 4.01943 2.36643 4.29546 2.36643H4.78487L4.78925 2.85297ZM6.82292 7.0658C6.82292 7.44011 6.51735 7.74418 6.14245 7.74418C5.76539 7.74418 5.46028 7.44011 5.46028 7.0658C5.46028 6.69343 5.76539 6.38859 6.14245 6.38859C6.51735 6.38859 6.82292 6.69343 6.82292 7.0658Z" fill="white"/>
</svg>
