<svg width="17" height="16" viewBox="0 0 17 16" fill="none" xmlns="http://www.w3.org/2000/svg">
<path fill-rule="evenodd" clip-rule="evenodd" d="M16.2623 0.51677C16.3176 0.487772 16.3856 0.494846 16.4358 0.533222C16.4849 0.572228 16.507 0.636056 16.4922 0.697436L13.5809 12.5995C13.5704 12.6426 13.5421 12.6785 13.5038 12.7008C13.4794 12.7144 13.4515 12.722 13.4237 12.722C13.408 12.722 13.3923 12.7194 13.3769 12.7149L7.55331 10.9559C7.50138 10.9403 7.46104 10.8996 7.44533 10.8486C7.43032 10.7963 7.44216 10.7404 7.4771 10.6995L13.2741 3.89632L5.72691 10.2929C5.68494 10.3315 5.62469 10.3438 5.57028 10.3266L0.608312 8.76185C0.546182 8.74182 0.501969 8.6867 0.496231 8.62208C0.491082 8.5571 0.525073 8.49572 0.58403 8.46616L16.2623 0.51677ZM7.64815 12.2031L9.2574 12.6941C9.30547 12.7086 9.34383 12.7449 9.3615 12.7919C9.37909 12.8382 9.3736 12.8905 9.34639 12.9324L7.73717 15.454C7.70643 15.501 7.65484 15.5286 7.60069 15.5286C7.58532 15.5286 7.57031 15.5261 7.55589 15.5223C7.48637 15.5023 7.43898 15.4396 7.43898 15.3682V12.356C7.43898 12.3053 7.46302 12.2574 7.50465 12.2272C7.54593 12.1966 7.5994 12.1871 7.64815 12.2031Z" fill="white"/>
</svg>
