<svg width="16" height="17" viewBox="0 0 16 17" fill="none" xmlns="http://www.w3.org/2000/svg">
<path fill-rule="evenodd" clip-rule="evenodd" d="M6.96336 6.63534L7.00104 6.63701C7.13837 6.63701 7.2709 6.57137 7.35596 6.46052C7.4502 6.33719 7.47517 6.17586 7.42282 6.02996C7.41836 6.01748 6.98996 4.76912 7.54632 3.72978C8.13694 2.73956 8.32937 1.94253 8.11796 1.36052C7.92818 0.837566 7.50023 0.698809 7.4532 0.685243C7.2188 0.615722 6.96466 0.754688 6.89555 0.99025C6.82527 1.22961 6.96087 1.48254 7.17888 1.5468C7.18147 1.54788 7.24188 1.57803 7.27648 1.67324C7.32737 1.81293 7.38154 2.24596 6.79292 3.23755L6.77127 3.27426C6.7263 3.3492 6.67781 3.42694 6.62537 3.50794C5.9442 4.56373 5.74011 5.39513 6.01889 5.97796C6.24317 6.4484 6.71591 6.61227 6.96336 6.63534ZM13.3002 14.3013C12.6986 14.2587 12.01 14.225 11.2668 14.1995C11.9449 13.6082 12.5174 12.8417 12.9382 11.9498C13.1437 12.1575 13.399 12.3092 13.6885 12.3799C13.8151 12.4114 13.9432 12.4265 14.0704 12.4265C14.3614 12.4265 14.6476 12.3458 14.9024 12.1889C15.2685 11.9633 15.5261 11.6072 15.6272 11.1859C15.7285 10.7645 15.6612 10.3288 15.4381 9.95878C15.0641 9.33824 14.3427 9.0688 13.6797 9.2357C13.7085 8.94648 13.728 8.6536 13.728 8.35488C13.728 8.0428 13.4783 7.7898 13.1694 7.7898H2.82898C2.52052 7.7898 2.27031 8.0428 2.27031 8.35488C2.27031 10.7729 3.24467 12.9097 4.72841 14.1998C3.98658 14.2252 3.29908 14.2591 2.69836 14.3013C0.607009 14.4492 -0.00102901 14.5899 -0.00102901 15.2373C-0.00102901 15.8842 0.607009 16.0253 2.69836 16.1731C4.11627 16.2735 5.99889 16.3288 7.99926 16.3288C9.99955 16.3288 11.8822 16.2735 13.3002 16.1731C15.3915 16.0253 15.9994 15.8842 15.9994 15.2373C15.9994 14.5899 15.3915 14.4492 13.3002 14.3013ZM13.568 10.0008C13.5701 9.99921 13.5723 9.99865 13.5745 9.9981C13.5767 9.99754 13.5789 9.99698 13.581 9.99541C14.021 9.72482 14.5974 9.86625 14.8656 10.3113C14.9957 10.5266 15.0345 10.7807 14.9757 11.0261C14.9168 11.2714 14.7671 11.4787 14.5535 11.6099C14.3403 11.7415 14.0889 11.7808 13.8467 11.7217C13.6041 11.6619 13.3988 11.5104 13.2691 11.2945C13.2623 11.2831 13.2532 11.2745 13.244 11.2659C13.239 11.2612 13.2339 11.2564 13.2292 11.2511C13.3723 10.852 13.485 10.4336 13.568 10.0008ZM3.40791 8.9195H12.5907C12.3711 11.9639 10.3957 14.3544 7.99926 14.3544C5.60287 14.3544 3.62755 11.9639 3.40791 8.9195ZM9.37906 6.72023L9.34775 6.71922C9.11479 6.6965 8.79852 6.55581 8.64435 6.23212C8.44652 5.81914 8.57124 5.27549 9.02614 4.57086C9.05359 4.52816 9.0796 4.48627 9.10398 4.4461L9.12973 4.40303C9.48043 3.81259 9.41915 3.59823 9.411 3.57609C9.41246 3.57682 9.43099 3.5851 9.45692 3.59239C9.34963 3.56008 9.26079 3.4871 9.20759 3.38742C9.15386 3.28724 9.14209 3.17213 9.17436 3.06323C9.23763 2.84571 9.4795 2.71178 9.69724 2.77576C9.75887 2.79443 10.0647 2.90442 10.2018 3.2814C10.3498 3.68926 10.2308 4.20693 9.83852 4.86397C9.5336 5.43419 9.77245 6.14119 9.77543 6.15001L9.77544 6.15004C9.82471 6.28764 9.80101 6.43932 9.71183 6.55537C9.6321 6.65886 9.50782 6.72023 9.37906 6.72023Z" fill="white"/>
</svg>
