<svg width="16" height="16" viewBox="0 0 16 16" fill="none" xmlns="http://www.w3.org/2000/svg">
<path fill-rule="evenodd" clip-rule="evenodd" d="M14.6631 4.00038H8.9874L11.2263 1.3127C11.2621 1.31898 11.2929 1.3329 11.3301 1.3329C11.6985 1.3329 11.9967 1.0346 11.9967 0.66584C11.9967 0.29896 11.6985 -0.00136006 11.3301 -0.00136006C10.9634 -0.00136006 10.6634 0.29896 10.6634 0.66584C10.6634 0.7464 10.6835 0.82046 10.7093 0.89158L8.11948 4.00038H7.87555L5.28697 0.89158C5.31213 0.82046 5.33161 0.7464 5.33161 0.66584C5.33161 0.29896 5.03351 -0.00136006 4.66497 -0.00136006C4.2977 -0.00136006 3.99832 0.29896 3.99832 0.66584C3.99832 1.0346 4.2977 1.3329 4.66497 1.3329C4.70204 1.3329 4.73415 1.31898 4.76873 1.3127L7.00822 4.00038H1.33241C0.596597 4.00038 -0.000193 4.59828 -0.000193 5.33384V14.6714C-0.000193 15.4076 0.596597 16.0047 1.33241 16.0047H14.6631C15.399 16.0047 15.9958 15.4076 15.9958 14.6714V5.33384C15.9958 4.59828 15.399 4.00038 14.6631 4.00038ZM11.9967 13.3373C11.9967 14.0735 11.4004 14.6714 10.6634 14.6714H2.66572C1.92988 14.6714 1.33241 14.0735 1.33241 13.3373V6.66794C1.33241 5.93116 1.92988 5.33384 2.66572 5.33384H10.6634C11.4004 5.33384 11.9967 5.93116 11.9967 6.66794V13.3373ZM13.9607 7.37668C13.435 7.37668 13.0086 6.9493 13.0086 6.42374C13.0086 5.89768 13.435 5.4718 13.9607 5.4718C14.4859 5.4718 14.9122 5.89768 14.9122 6.42374C14.9122 6.9493 14.4859 7.37668 13.9607 7.37668Z" fill="white"/>
</svg>
